<svg xmlns="http://www.w3.org/2000/svg" id="Layer_1" width="255" height="255" viewBox="0 0 255 255"><path d="M127.5 17.9l94.9 54.8v109.6l-94.9 54.8-94.9-54.8V72.7l94.9-54.8z"/><path fill="#fff" d="M75.5 168a1.7 1.7 0 0 1-1.8-1.8v-21.8H49.9a1.8 1.8 0 1 1 0-3.6h13.5v-11.7a1.7 1.7 0 0 1 1.8-1.8h7a57.2 57.2 0 0 1 55.1-43.7c.2-.2.4-.2.7 0a57 57 0 0 1 54.8 43.7h7a1.7 1.7 0 0 1 1.8 1.8v11.7h13.5a1.8 1.8 0 1 1 0 3.6h-23.8v21.8a1.7 1.7 0 0 1-1.8 1.8zM67 130.9v9.9h121v-9.9zm56.9-43.5c-23 1.4-42.3 18.1-47.9 39.9h19.3zm-46.6 57v20h48.4v-20zM125.7 91l-25.9 36.3h25.9zm3.6-3.8v40.1H179a53.6 53.6 0 0 0-49.7-40.1zm0 57.2v20h8.1v-20zm11.7 0v20h36.7v-20z"/></svg>